<?xml version="1.0" encoding="utf-8"?>
<svg version="1.1" id="TunerIcon" xmlns="http://www.w3.org/2000/svg" xmlns:xlink="http://www.w3.org/1999/xlink" viewBox="0 0 32 32" xml:space="preserve">
  <style type="text/css">
    /* メトロノームと同じ線の設定 */
    .st_tuner{fill:none;stroke:currentColor;stroke-width:2;stroke-linecap:round;stroke-linejoin:round;stroke-miterlimit:10;}
  </style>
  
  <path class="st_tuner" d="M12,18v6c0,2.2,1.8,4,4,4s4-1.8,4-4v-6"/>
  <line class="st_tuner" x1="16" y1="28" x2="16" y2="31"/>
  <line class="st_tuner" x1="13" y1="31" x2="19" y2="31"/>

  <path class="st_tuner" d="M4,15C4,8.4,9.4,3,16,3s12,5.4,12,12"/>
  
  <line class="st_tuner" x1="16" y1="3" x2="16" y2="6"/> <line class="st_tuner" x1="7.5" y1="6.5" x2="9.5" y2="8.5"/>
  <line class="st_tuner" x1="24.5" y1="6.5" x2="22.5" y2="8.5"/>
  <line class="st_tuner" x1="4" y1="15" x2="7" y2="15"/>
  <line class="st_tuner" x1="28" y1="15" x2="25" y2="15"/>

  <line class="st_tuner" x1="16" y1="15" x2="21" y2="7"/>
  
  <circle class="st_tuner" cx="16" cy="15" r="1"/>
</svg>